<svg xmlns="http://www.w3.org/2000/svg" viewBox="0 0 172.19 181.24"><defs><style>.cls-1{fill:#fff;}</style></defs><g id="Camada_2" data-name="Camada 2"><g id="Camada_1-2" data-name="Camada 1"><path class="cls-1" d="M19.27,118.86a13,13,0,0,0-5.94-1.32H0v31.61H7.71v-10H13a13.05,13.05,0,0,0,6.12-1.38,10.11,10.11,0,0,0,4.16-3.9,11.13,11.13,0,0,0,1.48-5.74,10.48,10.48,0,0,0-1.44-5.51A9.81,9.81,0,0,0,19.27,118.86ZM7.71,124.05h4.87a4.08,4.08,0,0,1,3.11,1.17,4.87,4.87,0,0,1,0,6.25,4.18,4.18,0,0,1-3.14,1.14H7.71Z"/><path class="cls-1" d="M45,126.77a13.87,13.87,0,0,0-6.54-1.51,14.08,14.08,0,0,0-6.6,1.51,10.81,10.81,0,0,0-4.49,4.29,12.67,12.67,0,0,0-1.58,6.37,12.52,12.52,0,0,0,1.6,6.34,10.92,10.92,0,0,0,4.49,4.29,13.94,13.94,0,0,0,6.58,1.51A13.87,13.87,0,0,0,45,148.06a11,11,0,0,0,4.49-4.29,13.38,13.38,0,0,0,0-12.69A11,11,0,0,0,45,126.77Zm-1.58,10.66A5.74,5.74,0,0,1,42,141.49h0A4.54,4.54,0,0,1,38.47,143a4.56,4.56,0,0,1-3.61-1.52,5.85,5.85,0,0,1-1.39-4.06,6,6,0,0,1,1.39-4.1,5,5,0,0,1,7.18,0A5.83,5.83,0,0,1,43.43,137.43Z"/><path class="cls-1" d="M84.68,143a2,2,0,0,1-1.6-.68,2.76,2.76,0,0,1-.63-1.92V132H88.6v-6.31H82.45v-6.56H80l-4.74,6.56c-3.06,0-6.13-.06-8.85-.11-2.09,0-3.93-.08-5.29-.08a9.41,9.41,0,0,0-5,1,7.83,7.83,0,0,0-3,3.1,8.49,8.49,0,0,0-1,3.9,5.77,5.77,0,0,0,.91,3.36,6.11,6.11,0,0,0,2.25,2,26.51,26.51,0,0,0,3.49,1.37l2.52.82a2.22,2.22,0,0,1,1,.63,1.08,1.08,0,0,1,.29.73,1,1,0,0,1-.4.79,2.58,2.58,0,0,1-1.6.33A10.77,10.77,0,0,1,55.33,142l-.46-.29L52,146.37l.27.3a9,9,0,0,0,3.21,2,13.45,13.45,0,0,0,5.19.95,12.59,12.59,0,0,0,4.85-.89A8.09,8.09,0,0,0,69,146.07a6.6,6.6,0,0,0,1.28-4,6.7,6.7,0,0,0-1.59-4.72,11.35,11.35,0,0,0-4.73-2.72l-2.44-.79a3.86,3.86,0,0,1-1.44-.68.87.87,0,0,1-.33-.71c0-.15.25-.28.46-.29s1.16,0,2,0l4.43-.05c2.79,0,6.19-.08,8.42-.09v9.75a7.8,7.8,0,0,0,2.11,5.65,7.37,7.37,0,0,0,5.52,2.19,14.85,14.85,0,0,0,6-1.12l.32-.14V142l-.74.31A8.94,8.94,0,0,1,84.68,143Z"/><path class="cls-1" d="M117,138.56a9.33,9.33,0,0,1-3.4,3.36,9.76,9.76,0,0,1-4.78,1.09,9.34,9.34,0,0,1-4.75-1.2,8.33,8.33,0,0,1-3.22-3.38,10.7,10.7,0,0,1-1.16-5,11.13,11.13,0,0,1,1.14-5.15,8.31,8.31,0,0,1,3.16-3.4,9.41,9.41,0,0,1,4.79-1.2,10.2,10.2,0,0,1,4.34.92,8.58,8.58,0,0,1,3.21,2.54l.37.49,4.91-5-.34-.38c-3.06-3.37-7.29-5.08-12.57-5.08a18.72,18.72,0,0,0-8.8,2,14.93,14.93,0,0,0-6,5.69,17.85,17.85,0,0,0-.06,16.8,15,15,0,0,0,5.94,5.84,18,18,0,0,0,8.7,2.09,19,19,0,0,0,8-1.6,14.56,14.56,0,0,0,5.83-4.82l.27-.38L117.33,138Z"/><path class="cls-1" d="M137.68,129.87l-2.18-.7a12.84,12.84,0,0,1-2.49-1.06,2.31,2.31,0,0,1-.94-.88,2.41,2.41,0,0,1-.22-1.11,2.25,2.25,0,0,1,.8-1.73,4,4,0,0,1,2.72-.75,8,8,0,0,1,3.33.66,14.07,14.07,0,0,1,3,1.87l.46.36,3.39-5.45-.31-.3a13.51,13.51,0,0,0-4.3-2.56,14.71,14.71,0,0,0-5.52-1.09,14,14,0,0,0-6,1.2,9.54,9.54,0,0,0-4.08,3.48,9.39,9.39,0,0,0-1.47,5.26,7.73,7.73,0,0,0,2.26,6,15.81,15.81,0,0,0,5.83,3.17l2.14.66a19.48,19.48,0,0,1,3.06,1.2,3.39,3.39,0,0,1,1.28,1,2.65,2.65,0,0,1,.33,1.41,2.13,2.13,0,0,1-.88,1.68,5,5,0,0,1-3.17.76,9.8,9.8,0,0,1-3.88-.74,13.33,13.33,0,0,1-3.25-2l-.49-.42-3,5.37.28.28a14,14,0,0,0,4.29,2.8,15.23,15.23,0,0,0,6.33,1.29,13.94,13.94,0,0,0,6.35-1.34,9.62,9.62,0,0,0,4-3.54,8.76,8.76,0,0,0,1.34-4.61,8.66,8.66,0,0,0-2.52-6.6A17.07,17.07,0,0,0,137.68,129.87Z"/><path class="cls-1" d="M169.67,133.48a17,17,0,0,0-6.56-3.61l-2.18-.7a12.84,12.84,0,0,1-2.49-1.06,2.31,2.31,0,0,1-.94-.88,2.58,2.58,0,0,1-.22-1.11,2.28,2.28,0,0,1,.8-1.73,4,4,0,0,1,2.72-.75,8,8,0,0,1,3.33.66,14.07,14.07,0,0,1,3,1.87l.47.36,3.39-5.45-.32-.3a13.57,13.57,0,0,0-4.29-2.56,14.8,14.8,0,0,0-5.53-1.09,14,14,0,0,0-6,1.2,9.28,9.28,0,0,0-5.55,8.74,7.76,7.76,0,0,0,2.26,6,15.89,15.89,0,0,0,5.83,3.17l2.15.66a18.9,18.9,0,0,1,3,1.2,3.39,3.39,0,0,1,1.28,1,2.65,2.65,0,0,1,.33,1.41,2.12,2.12,0,0,1-.87,1.68,5.1,5.1,0,0,1-3.18.76,9.8,9.8,0,0,1-3.88-.74,13.33,13.33,0,0,1-3.25-2l-.49-.42-3,5.37.27.28a14,14,0,0,0,4.29,2.8,15.27,15.27,0,0,0,6.33,1.29,13.91,13.91,0,0,0,6.35-1.34,9.63,9.63,0,0,0,4-3.54,8.76,8.76,0,0,0,1.34-4.61A8.66,8.66,0,0,0,169.67,133.48Z"/><path class="cls-1" d="M23.18,167.21v2.94h2.47v.54H23.18v7.74a3.14,3.14,0,0,0,.37,1.72,1.44,1.44,0,0,0,1.27.55,8.06,8.06,0,0,0,1.08-.09l.09.51a3.74,3.74,0,0,1-1.14.12,2,2,0,0,1-1.7-.66,3.39,3.39,0,0,1-.53-2.08v-7.81h-2v-.54h2v-2.94Z"/><path class="cls-1" d="M41.61,172.68a4.55,4.55,0,0,1,1.57-2,3.89,3.89,0,0,1,2.3-.74,3.26,3.26,0,0,1,2.6,1,4.54,4.54,0,0,1,.86,3V181H48.4v-7.12a4,4,0,0,0-.72-2.59,2.75,2.75,0,0,0-2.23-.84,3.4,3.4,0,0,0-2.45,1,5.15,5.15,0,0,0-1.39,2.58v7h-.55V165.57h.55Z"/><path class="cls-1" d="M68.85,181.24a4.33,4.33,0,0,1-2.42-.71,4.94,4.94,0,0,1-1.73-1.94,6.14,6.14,0,0,1-.62-2.75v-.46a6.38,6.38,0,0,1,.6-2.77,4.8,4.8,0,0,1,1.67-2,4.05,4.05,0,0,1,2.3-.71,3.82,3.82,0,0,1,3,1.3,4.92,4.92,0,0,1,1.16,3.42v.57H64.62v.59a5.49,5.49,0,0,0,.56,2.46,4.47,4.47,0,0,0,1.54,1.78,3.82,3.82,0,0,0,2.13.64,4.21,4.21,0,0,0,1.87-.37,3.71,3.71,0,0,0,1.37-1.12l.38.27A4.1,4.1,0,0,1,68.85,181.24Zm-.2-10.75a3.56,3.56,0,0,0-2.7,1.18,5.07,5.07,0,0,0-1.3,3h7.6v-.13a4.62,4.62,0,0,0-.47-2.06A3.53,3.53,0,0,0,70.49,171,3.27,3.27,0,0,0,68.65,170.49Z"/><path class="cls-1" d="M95.71,181h-.55v-7.31a3.56,3.56,0,0,0-.72-2.44,2.89,2.89,0,0,0-2.26-.8,3.48,3.48,0,0,0-2.93,1.58,5.34,5.34,0,0,0-.9,2.09V181H87.8V170.15h.55v2.57a4.59,4.59,0,0,1,1.59-2.05,4.14,4.14,0,0,1,4.51-.12,3,3,0,0,1,1.14,2,4.07,4.07,0,0,1,1.58-1.88,4.43,4.43,0,0,1,2.43-.7,3.31,3.31,0,0,1,2.63,1,4.56,4.56,0,0,1,.87,3V181h-.55V174a4.07,4.07,0,0,0-.72-2.65,2.75,2.75,0,0,0-2.26-.84,3.8,3.8,0,0,0-3.14,1.58,3.35,3.35,0,0,0-.72,1.73Z"/><path class="cls-1" d="M122.9,181.24a4.31,4.31,0,0,1-2.42-.71,4.86,4.86,0,0,1-1.73-1.94,6,6,0,0,1-.63-2.75v-.46a6.39,6.39,0,0,1,.61-2.77,4.78,4.78,0,0,1,1.66-2,4.09,4.09,0,0,1,2.31-.71,3.83,3.83,0,0,1,3,1.3,5,5,0,0,1,1.16,3.42v.57h-8.17v.59a5.36,5.36,0,0,0,.56,2.46,4.32,4.32,0,0,0,1.54,1.78,3.78,3.78,0,0,0,2.13.64,4.27,4.27,0,0,0,1.87-.37,3.76,3.76,0,0,0,1.36-1.12l.38.27A4.08,4.08,0,0,1,122.9,181.24Zm-.2-10.75a3.56,3.56,0,0,0-2.7,1.18,5.07,5.07,0,0,0-1.3,3h7.59v-.13a4.49,4.49,0,0,0-.47-2.06,3.53,3.53,0,0,0-1.29-1.48A3.22,3.22,0,0,0,122.7,170.49Z"/><path class="cls-1" d="M141.45,175.48a6.67,6.67,0,0,1,1.1-4.07,3.56,3.56,0,0,1,3-1.47,4.2,4.2,0,0,1,2.17.56,4.09,4.09,0,0,1,1.53,1.65v-6.58h.54V181h-.54V179.3a3.83,3.83,0,0,1-1.52,1.44,4.78,4.78,0,0,1-2.2.5,3.51,3.51,0,0,1-3-1.5,6.86,6.86,0,0,1-1.1-4.12Zm.57.22a6.44,6.44,0,0,0,.91,3.66,3,3,0,0,0,2.6,1.34,4.27,4.27,0,0,0,2.31-.6,3.58,3.58,0,0,0,1.42-1.76v-5.1a3.65,3.65,0,0,0-3.71-2.75,3,3,0,0,0-2.6,1.32A6.73,6.73,0,0,0,142,175.7Z"/><path class="cls-1" d="M86.1,105.41a52.59,52.59,0,1,1,52.58-52.58A52.65,52.65,0,0,1,86.1,105.41Zm0-103.57a51,51,0,1,0,51,51A51,51,0,0,0,86.1,1.84Z"/><path class="cls-1" d="M131.53,78.91H40.41L86,0ZM43.17,77.32h85.6L86,3.18Z"/><path class="cls-1" d="M107.21,78.91H64.79v-42h42.42ZM66.38,77.32h39.24V38.51H66.38Z"/><path class="cls-1" d="M86,78.91a21,21,0,1,1,21.21-21A21.12,21.12,0,0,1,86,78.91Zm0-40.4a19.41,19.41,0,1,0,19.62,19.41A19.54,19.54,0,0,0,86,38.51Z"/></g></g></svg>