<svg xmlns="http://www.w3.org/2000/svg" viewBox="0 0 172.19 180.2"><defs><style>.cls-1{fill:#ef4137;}.cls-2{fill:#231f20;}.cls-3{fill:#ef4136;}.cls-4{fill:#c5342b;}.cls-5{fill:#9e271d;}.cls-6{fill:#7a170a;}</style></defs><g id="Camada_2" data-name="Camada 2"><g id="Camada_1-2" data-name="Camada 1"><path class="cls-1" d="M19.27,117.82a12.92,12.92,0,0,0-5.94-1.32H0v31.61H7.71v-10H13a13.09,13.09,0,0,0,6.13-1.38,10.21,10.21,0,0,0,4.15-3.9,11.13,11.13,0,0,0,1.48-5.74,10.48,10.48,0,0,0-1.44-5.51A9.81,9.81,0,0,0,19.27,117.82Zm-2.43,9.49a4.24,4.24,0,0,1-1.12,3.12,4.16,4.16,0,0,1-3.14,1.14H7.71V123h4.87a4.12,4.12,0,0,1,3.12,1.17A4.23,4.23,0,0,1,16.84,127.31Z"/><path class="cls-1" d="M45,125.73a13.84,13.84,0,0,0-6.54-1.51,14.08,14.08,0,0,0-6.6,1.51A10.81,10.81,0,0,0,27.38,130a12.67,12.67,0,0,0-1.58,6.37,12.52,12.52,0,0,0,1.6,6.34A10.92,10.92,0,0,0,31.89,147a13.94,13.94,0,0,0,6.58,1.51A13.84,13.84,0,0,0,45,147a11,11,0,0,0,4.49-4.29,13.38,13.38,0,0,0,0-12.69A11,11,0,0,0,45,125.73Zm-1.58,10.66A5.74,5.74,0,0,1,42,140.45h0A4.54,4.54,0,0,1,38.47,142a4.56,4.56,0,0,1-3.61-1.52,5.85,5.85,0,0,1-1.39-4.06,5.94,5.94,0,0,1,1.39-4.1,5,5,0,0,1,7.18,0A5.92,5.92,0,0,1,43.43,136.39Z"/><path class="cls-1" d="M84.68,142a2,2,0,0,1-1.6-.68,2.79,2.79,0,0,1-.63-1.92v-8.43H88.6v-6.31H82.45v-6.56H80l-4.75,6.56c-3.06,0-6.13-.06-8.85-.11-2.09,0-3.93-.08-5.29-.08a9.43,9.43,0,0,0-5,1,7.83,7.83,0,0,0-3,3.1,8.48,8.48,0,0,0-1,3.9,5.77,5.77,0,0,0,.9,3.36,6,6,0,0,0,2.25,2,26.08,26.08,0,0,0,3.49,1.38l2.51.82a2.2,2.2,0,0,1,1,.63,1.08,1.08,0,0,1,.29.73,1,1,0,0,1-.4.79,2.61,2.61,0,0,1-1.6.33,10.77,10.77,0,0,1-5.31-1.49l-.46-.29L52,145.33l.27.3a9,9,0,0,0,3.21,2,13.45,13.45,0,0,0,5.19.95,12.59,12.59,0,0,0,4.85-.89A8,8,0,0,0,69,145a6.6,6.6,0,0,0,1.28-4,6.7,6.7,0,0,0-1.59-4.72,11.37,11.37,0,0,0-4.72-2.72l-2.45-.79a3.86,3.86,0,0,1-1.44-.68.91.91,0,0,1-.33-.71c0-.15.25-.28.46-.29s1.17,0,2,0l4.43-.05c2.8,0,6.19-.08,8.42-.09v9.75a7.81,7.81,0,0,0,2.11,5.65,7.37,7.37,0,0,0,5.52,2.19,14.85,14.85,0,0,0,6-1.12l.32-.14V141l-.73.31A9,9,0,0,1,84.68,142Z"/><path class="cls-1" d="M117,137.52a9.33,9.33,0,0,1-3.4,3.36,9.76,9.76,0,0,1-4.78,1.09,9.34,9.34,0,0,1-4.75-1.2,8.39,8.39,0,0,1-3.22-3.38,10.7,10.7,0,0,1-1.16-5,11.23,11.23,0,0,1,1.14-5.15,8.31,8.31,0,0,1,3.16-3.4,9.41,9.41,0,0,1,4.79-1.2,10.27,10.27,0,0,1,4.34.92,8.58,8.58,0,0,1,3.21,2.54l.37.49,4.91-5-.34-.37c-3.06-3.37-7.29-5.08-12.57-5.08a18.72,18.72,0,0,0-8.8,2,14.86,14.86,0,0,0-6,5.69,17.85,17.85,0,0,0-.06,16.8,15,15,0,0,0,5.94,5.84,18,18,0,0,0,8.7,2.09,19,19,0,0,0,8-1.6,14.56,14.56,0,0,0,5.83-4.82l.27-.38L117.33,137Z"/><path class="cls-1" d="M137.68,128.83l-2.18-.7a12.84,12.84,0,0,1-2.49-1.06,2.37,2.37,0,0,1-.94-.88,2.58,2.58,0,0,1-.22-1.11,2.25,2.25,0,0,1,.8-1.73,4,4,0,0,1,2.72-.75,8.18,8.18,0,0,1,3.33.65,14.54,14.54,0,0,1,3,1.88l.46.36,3.4-5.45-.32-.3a13.33,13.33,0,0,0-4.3-2.56,14.71,14.71,0,0,0-5.52-1.09,14,14,0,0,0-6,1.2,9.54,9.54,0,0,0-4.08,3.48,9.39,9.39,0,0,0-1.47,5.26,7.75,7.75,0,0,0,2.26,6,15.89,15.89,0,0,0,5.83,3.17l2.14.66a18.52,18.52,0,0,1,3.05,1.2,3.35,3.35,0,0,1,1.29,1.05,2.65,2.65,0,0,1,.33,1.41,2.13,2.13,0,0,1-.88,1.68,5,5,0,0,1-3.17.76,9.8,9.8,0,0,1-3.88-.74,13.33,13.33,0,0,1-3.25-2l-.49-.42-3,5.37.27.28a14,14,0,0,0,4.29,2.8,15.27,15.27,0,0,0,6.33,1.29,13.91,13.91,0,0,0,6.35-1.34,9.7,9.7,0,0,0,4-3.54,8.76,8.76,0,0,0,1.34-4.61,8.66,8.66,0,0,0-2.52-6.6A17,17,0,0,0,137.68,128.83Z"/><path class="cls-1" d="M169.67,132.44a16.92,16.92,0,0,0-6.56-3.61l-2.18-.7a12.84,12.84,0,0,1-2.49-1.06,2.37,2.37,0,0,1-.94-.88,2.59,2.59,0,0,1-.21-1.11,2.25,2.25,0,0,1,.8-1.73,3.94,3.94,0,0,1,2.71-.75,8.18,8.18,0,0,1,3.33.65,14,14,0,0,1,3,1.88l.47.36L171,120l-.32-.3a13.39,13.39,0,0,0-4.29-2.56,14.76,14.76,0,0,0-5.53-1.09,14,14,0,0,0-6,1.2,9.6,9.6,0,0,0-4.08,3.48,9.47,9.47,0,0,0-1.47,5.26,7.76,7.76,0,0,0,2.26,6,15.85,15.85,0,0,0,5.84,3.17l2.14.66a18.9,18.9,0,0,1,3,1.2,3.39,3.39,0,0,1,1.28,1.05,2.65,2.65,0,0,1,.34,1.41,2.11,2.11,0,0,1-.89,1.68,5,5,0,0,1-3.17.76,9.8,9.8,0,0,1-3.88-.74,13.52,13.52,0,0,1-3.25-2l-.49-.42-3,5.37.27.28a14.09,14.09,0,0,0,4.29,2.8,15.27,15.27,0,0,0,6.33,1.29,13.91,13.91,0,0,0,6.35-1.34,9.7,9.7,0,0,0,4-3.54,8.76,8.76,0,0,0,1.34-4.61A8.66,8.66,0,0,0,169.67,132.44Z"/><path class="cls-2" d="M23.18,166.16v3h2.48v.54H23.18v7.74a3.14,3.14,0,0,0,.37,1.72,1.44,1.44,0,0,0,1.27.55,7.93,7.93,0,0,0,1.08-.09l.09.51a3.74,3.74,0,0,1-1.14.12,2,2,0,0,1-1.7-.66,3.46,3.46,0,0,1-.53-2.08v-7.81h-2v-.54h2v-3Z"/><path class="cls-2" d="M41.61,171.64a4.62,4.62,0,0,1,1.57-2,3.89,3.89,0,0,1,2.3-.74,3.21,3.21,0,0,1,2.6,1,4.54,4.54,0,0,1,.86,3V180H48.4v-7.12a4,4,0,0,0-.72-2.59,2.75,2.75,0,0,0-2.23-.84,3.4,3.4,0,0,0-2.45,1A5.15,5.15,0,0,0,41.61,173v7h-.54V164.53h.54Z"/><path class="cls-2" d="M68.85,180.2a4.33,4.33,0,0,1-2.42-.71,4.8,4.8,0,0,1-1.72-2,5.94,5.94,0,0,1-.63-2.74v-.46a6.25,6.25,0,0,1,.61-2.77,4.71,4.71,0,0,1,1.66-2,4.05,4.05,0,0,1,2.3-.71,3.82,3.82,0,0,1,3,1.3,4.92,4.92,0,0,1,1.16,3.42v.57H64.62v.59a5.49,5.49,0,0,0,.56,2.46A4.47,4.47,0,0,0,66.72,179a3.91,3.91,0,0,0,2.13.64,4.21,4.21,0,0,0,1.87-.37,3.71,3.71,0,0,0,1.37-1.12l.38.27A4.1,4.1,0,0,1,68.85,180.2Zm-.2-10.75a3.56,3.56,0,0,0-2.7,1.18,5.13,5.13,0,0,0-1.3,3h7.6v-.13a4.62,4.62,0,0,0-.47-2.06A3.53,3.53,0,0,0,70.49,170,3.27,3.27,0,0,0,68.65,169.45Z"/><path class="cls-2" d="M95.71,180h-.55v-7.31a3.54,3.54,0,0,0-.72-2.44,2.84,2.84,0,0,0-2.26-.8A3.48,3.48,0,0,0,89.25,171a5.34,5.34,0,0,0-.9,2.09V180H87.8V169.11h.55v2.57a4.59,4.59,0,0,1,1.59-2.05,4.14,4.14,0,0,1,4.51-.12,3,3,0,0,1,1.15,2,4,4,0,0,1,1.57-1.88,4.43,4.43,0,0,1,2.43-.7,3.31,3.31,0,0,1,2.63,1,4.56,4.56,0,0,1,.87,3V180h-.55v-7.06a4.07,4.07,0,0,0-.72-2.65,2.69,2.69,0,0,0-2.26-.84A3.8,3.8,0,0,0,96.43,171a3.32,3.32,0,0,0-.72,1.73Z"/><path class="cls-2" d="M122.9,180.2a4.31,4.31,0,0,1-2.42-.71,4.82,4.82,0,0,1-1.73-2,5.94,5.94,0,0,1-.62-2.74v-.46a6.38,6.38,0,0,1,.6-2.77,4.78,4.78,0,0,1,1.66-2,4.11,4.11,0,0,1,2.31-.71,3.83,3.83,0,0,1,3,1.3,5,5,0,0,1,1.16,3.42v.57h-8.17v.59a5.49,5.49,0,0,0,.56,2.46,4.32,4.32,0,0,0,1.54,1.78,3.86,3.86,0,0,0,2.13.64,4.27,4.27,0,0,0,1.87-.37,3.68,3.68,0,0,0,1.36-1.12l.38.27A4.08,4.08,0,0,1,122.9,180.2Zm-.2-10.75a3.56,3.56,0,0,0-2.7,1.18,5.07,5.07,0,0,0-1.3,3h7.59v-.13a4.49,4.49,0,0,0-.47-2.06,3.58,3.58,0,0,0-1.28-1.48A3.27,3.27,0,0,0,122.7,169.45Z"/><path class="cls-2" d="M141.45,174.44a6.67,6.67,0,0,1,1.1-4.07,3.56,3.56,0,0,1,3-1.47,4.2,4.2,0,0,1,2.17.56,4.09,4.09,0,0,1,1.53,1.65v-6.58h.54V180h-.54v-1.74a3.74,3.74,0,0,1-1.52,1.43,4.66,4.66,0,0,1-2.2.51,3.51,3.51,0,0,1-3-1.5,6.86,6.86,0,0,1-1.1-4.12Zm.57.21a6.45,6.45,0,0,0,.91,3.67,3,3,0,0,0,2.6,1.34,4.27,4.27,0,0,0,2.31-.6,3.53,3.53,0,0,0,1.42-1.76v-5.1a3.64,3.64,0,0,0-3.71-2.75,3,3,0,0,0-2.6,1.32A6.71,6.71,0,0,0,142,174.65Z"/><circle class="cls-3" cx="86.1" cy="51.79" r="51.79"/><polygon class="cls-4" points="86.21 0.55 41.79 77.49 130.62 77.49 86.21 0.55"/><rect class="cls-5" x="65.58" y="36.22" width="41.29" height="41.29"/><circle class="cls-6" cx="86.23" cy="56.87" r="20.64"/></g></g></svg>